<svg xmlns="http://www.w3.org/2000/svg" width="1em" height="1em" viewBox="0 0 24 24">
  <path fill="currentColor" d="M4 5.5A2.5 2.5 0 0 1 6.5 3h11A2.5 2.5 0 0 1 20 5.5v13a2.5 2.5 0 0 1-2.5 2.5h-11A2.5 2.5 0 0 1 4 18.5zm2.5-.75a.75.75 0 0 0-.75.75v13c0 .414.336.75.75.75h11a.75.75 0 0 0 .75-.75v-13a.75.75 0 0 0-.75-.75zM8.5 7a1.5 1.5 0 1 1-.001 3.001A1.5 1.5 0 0 1 8.5 7m7 0a1.5 1.5 0 1 1-.001 3.001A1.5 1.5 0 0 1 15.5 7m-3.5 4a1.5 1.5 0 1 1-.001 3.001A1.5 1.5 0 0 1 12 11m-3.5 4a1.5 1.5 0 1 1-.001 3.001A1.5 1.5 0 0 1 8.5 15m7 0a1.5 1.5 0 1 1-.001 3.001A1.5 1.5 0 0 1 15.5 15"/>
</svg>
