<svg xmlns="http://www.w3.org/2000/svg" width="1em" height="1em" viewBox="0 0 24 24">
  <path fill="currentColor" d="M12 4.75c4.78 0 8.5 1.79 8.5 4.08v6.34c0 2.29-3.72 4.08-8.5 4.08s-8.5-1.79-8.5-4.08V8.83c0-2.29 3.72-4.08 8.5-4.08m0 1.75c-4.13 0-6.75 1.43-6.75 2.33s2.62 2.33 6.75 2.33s6.75-1.43 6.75-2.33S16.13 6.5 12 6.5m-6.75 4.83v3.84c0 .9 2.62 2.33 6.75 2.33s6.75-1.43 6.75-2.33v-3.84c-1.54.96-3.98 1.58-6.75 1.58s-5.21-.62-6.75-1.58M8 14h1.5v2H8zm3.25.35h1.5v2.25h-1.5zM14.5 14H16v2h-1.5z"/>
</svg>
